<svg viewBox="0 0 710 218" xmlns="http://www.w3.org/2000/svg" style="font-family:sans-serif;">
  <defs>
    <marker id="arw" markerWidth="7" markerHeight="7" refX="6" refY="3" orient="auto">
      <path d="M0,0 L0,6 L7,3 z" fill="#bbb"/>
    </marker>
  </defs>

  <!-- カメラネットワーク -->
  <text x="10" y="14" font-size="11" font-weight="bold" fill="#3730a3">カメラネットワーク</text>

  <rect x="10" y="22" width="138" height="44" rx="7" fill="#EEF2FF"/>
  <text x="79" y="40" font-size="11" font-weight="bold" text-anchor="middle" fill="#1e1b4b">WV-U31301-F2L × 4</text>
  <text x="79" y="56" font-size="10" text-anchor="middle" fill="#555">2MP 室内ドームカメラ</text>

  <rect x="10" y="80" width="138" height="44" rx="7" fill="#EEF2FF"/>
  <text x="79" y="98" font-size="11" font-weight="bold" text-anchor="middle" fill="#1e1b4b">WV-S32302-F2L1 × 1</text>
  <text x="79" y="114" font-size="10" text-anchor="middle" fill="#555">2MP エントランスカメラ</text>

  <path d="M148,44 L163,44 L163,73 L176,73" stroke="#ccc" stroke-width="1.5" fill="none" marker-end="url(#arw)"/>
  <path d="M148,102 L163,102 L163,73 L176,73" stroke="#ccc" stroke-width="1.5" fill="none" marker-end="url(#arw)"/>

  <rect x="179" y="51" width="110" height="44" rx="7" fill="#DBEAFE"/>
  <text x="234" y="69" font-size="11" font-weight="bold" text-anchor="middle" fill="#1e3a8a">WJ-NU201/1</text>
  <text x="234" y="85" font-size="10" text-anchor="middle" fill="#555">Panasonicレコーダー</text>

  <path d="M289,73 L307,73" stroke="#ccc" stroke-width="1.5" fill="none" marker-end="url(#arw)"/>

  <rect x="310" y="51" width="108" height="44" rx="7" fill="#DBEAFE"/>
  <text x="364" y="69" font-size="11" font-weight="bold" text-anchor="middle" fill="#1e3a8a">屋外Wi-Fi × 2</text>
  <text x="364" y="85" font-size="10" text-anchor="middle" fill="#555">建物間ワイヤレス中継</text>

  <path d="M418,73 L436,73" stroke="#ccc" stroke-width="1.5" fill="none" marker-end="url(#arw)"/>

  <rect x="439" y="51" width="84" height="44" rx="7" fill="#DBEAFE"/>
  <text x="481" y="69" font-size="11" font-weight="bold" text-anchor="middle" fill="#1e3a8a">PoEハブ</text>
  <text x="481" y="85" font-size="10" text-anchor="middle" fill="#555">給電・分配</text>

  <path d="M570,37 L543,37 L543,64 L523,64" stroke="#ccc" stroke-width="1.5" fill="none" marker-end="url(#arw)"/>
  <path d="M523,82 L543,82 L543,109 L570,109" stroke="#ccc" stroke-width="1.5" fill="none" marker-end="url(#arw)"/>

  <rect x="573" y="15" width="128" height="44" rx="7" fill="#EEF2FF"/>
  <text x="637" y="33" font-size="11" font-weight="bold" text-anchor="middle" fill="#1e1b4b">WV-U1532LA</text>
  <text x="637" y="49" font-size="10" text-anchor="middle" fill="#555">駐車場カメラ</text>

  <rect x="573" y="87" width="128" height="44" rx="7" fill="#EEF2FF"/>
  <text x="637" y="105" font-size="11" font-weight="bold" text-anchor="middle" fill="#1e1b4b">エルーア AS-7000</text>
  <text x="637" y="121" font-size="9" text-anchor="middle" fill="#555">PCレス 全館カメラ現地確認</text>

  <line x1="10" y1="147" x2="700" y2="147" stroke="#e5e7eb" stroke-width="1"/>

  <!-- 人物検知連動 -->
  <text x="10" y="161" font-size="11" font-weight="bold" fill="#065f46">人物検知連動</text>

  <rect x="10" y="168" width="125" height="44" rx="7" fill="#ECFDF5"/>
  <text x="72" y="186" font-size="10" font-weight="bold" text-anchor="middle" fill="#064e3b">WV-S32302-F2L1</text>
  <text x="72" y="202" font-size="10" text-anchor="middle" fill="#555">エントランス 人物検知</text>

  <path d="M135,190 L150,190" stroke="#ccc" stroke-width="1.5" fill="none" marker-end="url(#arw)"/>

  <rect x="153" y="168" width="100" height="44" rx="7" fill="#ECFDF5"/>
  <text x="203" y="186" font-size="10" font-weight="bold" text-anchor="middle" fill="#064e3b">WJ-NU201/1</text>
  <text x="203" y="202" font-size="10" text-anchor="middle" fill="#555">検知信号出力</text>

  <path d="M253,190 L268,190" stroke="#ccc" stroke-width="1.5" fill="none" marker-end="url(#arw)"/>

  <rect x="271" y="168" width="110" height="44" rx="7" fill="#F5F3FF"/>
  <text x="326" y="186" font-size="10" font-weight="bold" text-anchor="middle" fill="#4c1d95">IPCP PRO 250xi</text>
  <text x="326" y="202" font-size="10" text-anchor="middle" fill="#555">トリガー制御</text>

  <path d="M381,190 L396,190" stroke="#ccc" stroke-width="1.5" fill="none" marker-end="url(#arw)"/>

  <rect x="399" y="168" width="100" height="44" rx="7" fill="#ECFDF5"/>
  <text x="449" y="186" font-size="10" font-weight="bold" text-anchor="middle" fill="#064e3b">BrightSign</text>
  <text x="449" y="202" font-size="10" text-anchor="middle" fill="#555">ウェルカム映像再生</text>

  <path d="M499,190 L514,190" stroke="#ccc" stroke-width="1.5" fill="none" marker-end="url(#arw)"/>

  <rect x="517" y="168" width="115" height="44" rx="7" fill="#D1FAE5"/>
  <text x="574" y="186" font-size="10" font-weight="bold" text-anchor="middle" fill="#064e3b">全館サイネージ</text>
  <text x="574" y="202" font-size="10" text-anchor="middle" fill="#555">来客と同時にお出迎え</text>
</svg>
