<svg viewBox="0 0 530 284" xmlns="http://www.w3.org/2000/svg" style="font-family:sans-serif;">
  <defs>
    <marker id="arw" markerWidth="7" markerHeight="7" refX="6" refY="3" orient="auto">
      <path d="M0,0 L0,6 L7,3 z" fill="#bbb"/>
    </marker>
  </defs>

  <!-- 映像系 -->
  <text x="10" y="14" font-size="11" font-weight="bold" fill="#3730a3">映像系</text>
  <rect x="10" y="22" width="88" height="44" rx="7" fill="#EEF2FF"/>
  <text x="54" y="40" font-size="11" font-weight="bold" text-anchor="middle" fill="#1e1b4b">ノートPC</text>
  <text x="54" y="56" font-size="10" text-anchor="middle" fill="#555">発表者PC</text>
  <path d="M98,44 L116,44" stroke="#ccc" stroke-width="1.5" fill="none" marker-end="url(#arw)"/>
  <rect x="116" y="22" width="130" height="44" rx="7" fill="#EEF2FF"/>
  <text x="181" y="40" font-size="11" font-weight="bold" text-anchor="middle" fill="#1e1b4b">TY-WPS2 PressIT</text>
  <text x="181" y="56" font-size="10" text-anchor="middle" fill="#555">ワイヤレスHDMI送信</text>
  <path d="M246,44 L264,44" stroke="#ccc" stroke-width="1.5" fill="none" marker-end="url(#arw)"/>
  <rect x="264" y="22" width="108" height="44" rx="7" fill="#DBEAFE"/>
  <text x="318" y="40" font-size="11" font-weight="bold" text-anchor="middle" fill="#1e3a8a">PT-VMZ72J</text>
  <text x="318" y="56" font-size="10" text-anchor="middle" fill="#555">天吊りプロジェクター</text>
  <path d="M372,44 L390,44" stroke="#ccc" stroke-width="1.5" fill="none" marker-end="url(#arw)"/>
  <rect x="390" y="22" width="88" height="44" rx="7" fill="#DBEAFE"/>
  <text x="434" y="40" font-size="11" font-weight="bold" text-anchor="middle" fill="#1e3a8a">壁面投影</text>
  <text x="434" y="56" font-size="10" text-anchor="middle" fill="#555">ケーブルレス</text>

  <line x1="10" y1="78" x2="520" y2="78" stroke="#e5e7eb" stroke-width="1"/>

  <!-- 音声系 -->
  <text x="10" y="94" font-size="11" font-weight="bold" fill="#065f46">音声系</text>
  <rect x="10" y="102" width="88" height="44" rx="7" fill="#ECFDF5"/>
  <text x="54" y="120" font-size="11" font-weight="bold" text-anchor="middle" fill="#064e3b">ノートPC</text>
  <text x="54" y="136" font-size="10" text-anchor="middle" fill="#555">ステレオ音声出力</text>
  <rect x="10" y="152" width="88" height="44" rx="7" fill="#ECFDF5"/>
  <text x="54" y="170" font-size="11" font-weight="bold" text-anchor="middle" fill="#064e3b">AUX入力</text>
  <text x="54" y="186" font-size="10" text-anchor="middle" fill="#555">ステレオライン入力</text>
  <path d="M98,124 L107,124 L107,149 L116,149" stroke="#ccc" stroke-width="1.5" fill="none" marker-end="url(#arw)"/>
  <path d="M98,174 L107,174 L107,149 L116,149" stroke="#ccc" stroke-width="1.5" fill="none" marker-end="url(#arw)"/>
  <rect x="116" y="127" width="148" height="44" rx="7" fill="#ECFDF5"/>
  <text x="190" y="145" font-size="11" font-weight="bold" text-anchor="middle" fill="#064e3b">PowerZone Connect 252</text>
  <text x="190" y="161" font-size="10" text-anchor="middle" fill="#555">Blaze Audio DSP内蔵アンプ</text>
  <path d="M264,149 L282,149" stroke="#ccc" stroke-width="1.5" fill="none" marker-end="url(#arw)"/>
  <rect x="282" y="127" width="118" height="44" rx="7" fill="#D1FAE5"/>
  <text x="341" y="145" font-size="11" font-weight="bold" text-anchor="middle" fill="#064e3b">WS-NF055 × 2</text>
  <text x="341" y="161" font-size="10" text-anchor="middle" fill="#555">Panasonicスピーカー</text>

  <line x1="10" y1="208" x2="520" y2="208" stroke="#e5e7eb" stroke-width="1"/>

  <!-- 制御系 -->
  <text x="10" y="224" font-size="11" font-weight="bold" fill="#7c3aed">制御系</text>
  <rect x="10" y="232" width="140" height="44" rx="7" fill="#F5F3FF"/>
  <text x="80" y="250" font-size="11" font-weight="bold" text-anchor="middle" fill="#4c1d95">Extron 演台操作パネル</text>
  <text x="80" y="266" font-size="10" text-anchor="middle" fill="#555">ワンボタン起動・音量</text>
  <path d="M150,254 L168,254" stroke="#ccc" stroke-width="1.5" fill="none" marker-end="url(#arw)"/>
  <rect x="168" y="232" width="108" height="44" rx="7" fill="#F5F3FF"/>
  <text x="222" y="250" font-size="11" font-weight="bold" text-anchor="middle" fill="#4c1d95">IPCP PRO 250xi</text>
  <text x="222" y="266" font-size="10" text-anchor="middle" fill="#555">Extron 制御プロセッサー</text>
  <path d="M276,254 L294,254" stroke="#ccc" stroke-width="1.5" fill="none" marker-end="url(#arw)"/>
  <rect x="294" y="232" width="224" height="44" rx="7" fill="#EDE9FE"/>
  <text x="406" y="250" font-size="11" font-weight="bold" text-anchor="middle" fill="#4c1d95">プロジェクター / アンプ</text>
  <text x="406" y="266" font-size="10" text-anchor="middle" fill="#555">PowerZone Connect 252 を一括制御</text>
</svg>
