<svg viewBox="0 0 530 455" xmlns="http://www.w3.org/2000/svg" style="font-family:sans-serif;">
  <defs>
    <marker id="arw" markerWidth="7" markerHeight="7" refX="6" refY="3" orient="auto">
      <path d="M0,0 L0,6 L7,3 z" fill="#bbb"/>
    </marker>
  </defs>

  <!-- 映像系 -->
  <text x="10" y="14" font-size="11" font-weight="bold" fill="#3730a3">映像系</text>
  <rect x="10" y="22" width="100" height="44" rx="7" fill="#EEF2FF"/>
  <text x="60" y="40" font-size="11" font-weight="bold" text-anchor="middle" fill="#1e1b4b">BrightSign</text>
  <text x="60" y="56" font-size="10" text-anchor="middle" fill="#555">サイネージ再生</text>
  <path d="M110,44 L128,44" stroke="#ccc" stroke-width="1.5" fill="none" marker-end="url(#arw)"/>
  <rect x="128" y="22" width="148" height="44" rx="7" fill="#EEF2FF"/>
  <text x="202" y="40" font-size="11" font-weight="bold" text-anchor="middle" fill="#1e1b4b">IMAGENICS HDBaseT × 2</text>
  <text x="202" y="56" font-size="10" text-anchor="middle" fill="#555">長距離映像・電源延長</text>
  <path d="M276,35 L284,35 L284,21 L292,21" stroke="#ccc" stroke-width="1.5" fill="none" marker-end="url(#arw)"/>
  <path d="M276,53 L284,53 L284,87 L292,87" stroke="#ccc" stroke-width="1.5" fill="none" marker-end="url(#arw)"/>
  <rect x="292" y="0" width="138" height="44" rx="7" fill="#DBEAFE"/>
  <text x="361" y="18" font-size="11" font-weight="bold" text-anchor="middle" fill="#1e3a8a">TH-50EQ2J × 6</text>
  <text x="361" y="34" font-size="10" text-anchor="middle" fill="#555">50インチ壁面ディスプレイ</text>
  <rect x="292" y="65" width="138" height="44" rx="7" fill="#DBEAFE"/>
  <text x="361" y="83" font-size="11" font-weight="bold" text-anchor="middle" fill="#1e3a8a">TH-75EQ2J</text>
  <text x="361" y="99" font-size="10" text-anchor="middle" fill="#555">75インチ大型ディスプレイ</text>

  <line x1="10" y1="120" x2="520" y2="120" stroke="#e5e7eb" stroke-width="1"/>

  <!-- 音声系 -->
  <text x="10" y="136" font-size="11" font-weight="bold" fill="#065f46">音声系</text>
  <rect x="10" y="144" width="100" height="44" rx="7" fill="#ECFDF5"/>
  <text x="60" y="162" font-size="11" font-weight="bold" text-anchor="middle" fill="#064e3b">BrightSign</text>
  <text x="60" y="178" font-size="10" text-anchor="middle" fill="#555">BGM・ローカル再生</text>
  <rect x="10" y="194" width="100" height="44" rx="7" fill="#ECFDF5"/>
  <text x="60" y="212" font-size="11" font-weight="bold" text-anchor="middle" fill="#064e3b">HDMI入力</text>
  <text x="60" y="228" font-size="10" text-anchor="middle" fill="#555">外部映像音声</text>
  <rect x="10" y="244" width="100" height="44" rx="7" fill="#ECFDF5"/>
  <text x="60" y="262" font-size="11" font-weight="bold" text-anchor="middle" fill="#064e3b">AUX入力</text>
  <text x="60" y="278" font-size="10" text-anchor="middle" fill="#555">ステレオライン入力</text>
  <path d="M110,166 L119,166 L119,216 L128,216" stroke="#ccc" stroke-width="1.5" fill="none" marker-end="url(#arw)"/>
  <path d="M110,216 L128,216" stroke="#ccc" stroke-width="1.5" fill="none" marker-end="url(#arw)"/>
  <path d="M110,266 L119,266 L119,216 L128,216" stroke="#ccc" stroke-width="1.5" fill="none" marker-end="url(#arw)"/>
  <rect x="128" y="194" width="152" height="44" rx="7" fill="#ECFDF5"/>
  <text x="204" y="212" font-size="11" font-weight="bold" text-anchor="middle" fill="#064e3b">PowerZone Connect 1008</text>
  <text x="204" y="228" font-size="10" text-anchor="middle" fill="#555">Blaze Audio DSP内蔵アンプ</text>
  <path d="M280,206 L289,206 L289,172 L298,172" stroke="#ccc" stroke-width="1.5" fill="none" marker-end="url(#arw)"/>
  <path d="M280,216 L298,216" stroke="#ccc" stroke-width="1.5" fill="none" marker-end="url(#arw)"/>
  <path d="M280,226 L289,226 L289,260 L298,260" stroke="#ccc" stroke-width="1.5" fill="none" marker-end="url(#arw)"/>
  <rect x="298" y="150" width="120" height="44" rx="7" fill="#D1FAE5"/>
  <text x="358" y="168" font-size="11" font-weight="bold" text-anchor="middle" fill="#064e3b">WS-NF055 × 2</text>
  <text x="358" y="184" font-size="10" text-anchor="middle" fill="#555">Panasonicスピーカー</text>
  <rect x="298" y="194" width="120" height="44" rx="7" fill="#D1FAE5"/>
  <text x="358" y="212" font-size="11" font-weight="bold" text-anchor="middle" fill="#064e3b">Blaze Audio Ci2 × 2</text>
  <text x="358" y="228" font-size="10" text-anchor="middle" fill="#555">インウォールスピーカー</text>
  <rect x="298" y="238" width="120" height="44" rx="7" fill="#D1FAE5"/>
  <text x="358" y="256" font-size="11" font-weight="bold" text-anchor="middle" fill="#064e3b">天井スピーカー（全館）</text>
  <text x="358" y="272" font-size="10" text-anchor="middle" fill="#555">BGM放送</text>

  <line x1="10" y1="294" x2="520" y2="294" stroke="#e5e7eb" stroke-width="1"/>

  <!-- 制御系 -->
  <text x="10" y="310" font-size="11" font-weight="bold" fill="#7c3aed">制御系</text>
  <rect x="10" y="318" width="100" height="44" rx="7" fill="#F5F3FF"/>
  <text x="60" y="336" font-size="11" font-weight="bold" text-anchor="middle" fill="#4c1d95">タッチパネル</text>
  <text x="60" y="352" font-size="10" text-anchor="middle" fill="#555">コンテンツ選択・音量</text>
  <path d="M110,340 L128,340" stroke="#ccc" stroke-width="1.5" fill="none" marker-end="url(#arw)"/>
  <rect x="128" y="318" width="110" height="44" rx="7" fill="#F5F3FF"/>
  <text x="183" y="336" font-size="11" font-weight="bold" text-anchor="middle" fill="#4c1d95">IPCP PRO 250xi</text>
  <text x="183" y="352" font-size="10" text-anchor="middle" fill="#555">Extron 制御プロセッサー</text>
  <path d="M238,340 L256,340" stroke="#ccc" stroke-width="1.5" fill="none" marker-end="url(#arw)"/>
  <rect x="256" y="318" width="258" height="44" rx="7" fill="#EDE9FE"/>
  <text x="385" y="336" font-size="11" font-weight="bold" text-anchor="middle" fill="#4c1d95">全ディスプレイ × 7 / BrightSign</text>
  <text x="385" y="352" font-size="10" text-anchor="middle" fill="#555">PowerZone Connect 1008 を一括制御</text>

  <line x1="10" y1="374" x2="520" y2="374" stroke="#e5e7eb" stroke-width="1"/>

  <!-- カメラ連動 -->
  <text x="10" y="390" font-size="11" font-weight="bold" fill="#065f46">カメラ連動</text>
  <rect x="10" y="398" width="128" height="44" rx="7" fill="#ECFDF5"/>
  <text x="74" y="416" font-size="11" font-weight="bold" text-anchor="middle" fill="#064e3b">セキュリティカメラ</text>
  <text x="74" y="432" font-size="10" text-anchor="middle" fill="#555">人物検知トリガー</text>
  <path d="M138,420 L156,420" stroke="#ccc" stroke-width="1.5" fill="none" marker-end="url(#arw)"/>
  <rect x="156" y="398" width="110" height="44" rx="7" fill="#F5F3FF"/>
  <text x="211" y="416" font-size="11" font-weight="bold" text-anchor="middle" fill="#4c1d95">IPCP PRO 250xi</text>
  <text x="211" y="432" font-size="10" text-anchor="middle" fill="#555">検知信号処理</text>
  <path d="M266,420 L284,420" stroke="#ccc" stroke-width="1.5" fill="none" marker-end="url(#arw)"/>
  <rect x="284" y="398" width="100" height="44" rx="7" fill="#ECFDF5"/>
  <text x="334" y="416" font-size="11" font-weight="bold" text-anchor="middle" fill="#064e3b">BrightSign</text>
  <text x="334" y="432" font-size="10" text-anchor="middle" fill="#555">サイネージ自動再生</text>
  <path d="M384,420 L402,420" stroke="#ccc" stroke-width="1.5" fill="none" marker-end="url(#arw)"/>
  <rect x="402" y="398" width="110" height="44" rx="7" fill="#D1FAE5"/>
  <text x="457" y="416" font-size="11" font-weight="bold" text-anchor="middle" fill="#064e3b">全館サイネージ</text>
  <text x="457" y="432" font-size="10" text-anchor="middle" fill="#555">来客と同時にお出迎え</text>
</svg>
