<svg viewBox="0 0 510 412" xmlns="http://www.w3.org/2000/svg" style="font-family:sans-serif;">
  <defs>
    <marker id="arw" markerWidth="7" markerHeight="7" refX="6" refY="3" orient="auto">
      <path d="M0,0 L0,6 L7,3 z" fill="#bbb"/>
    </marker>
  </defs>

  <!-- 映像系 -->
  <text x="10" y="14" font-size="11" font-weight="bold" fill="#3730a3">映像系</text>
  <rect x="10" y="22" width="88" height="44" rx="7" fill="#EEF2FF"/>
  <text x="54" y="40" font-size="11" font-weight="bold" text-anchor="middle" fill="#1e1b4b">ノートPC</text>
  <text x="54" y="56" font-size="10" text-anchor="middle" fill="#555">発表者PC</text>
  <path d="M98,44 L116,44" stroke="#ccc" stroke-width="1.5" fill="none" marker-end="url(#arw)"/>
  <rect x="116" y="22" width="130" height="44" rx="7" fill="#EEF2FF"/>
  <text x="181" y="40" font-size="11" font-weight="bold" text-anchor="middle" fill="#1e1b4b">TY-WPS2 PressIT</text>
  <text x="181" y="56" font-size="10" text-anchor="middle" fill="#555">ワイヤレスHDMI送信</text>
  <path d="M246,44 L264,44" stroke="#ccc" stroke-width="1.5" fill="none" marker-end="url(#arw)"/>
  <rect x="264" y="22" width="108" height="44" rx="7" fill="#DBEAFE"/>
  <text x="318" y="40" font-size="11" font-weight="bold" text-anchor="middle" fill="#1e3a8a">PT-VMZ72J</text>
  <text x="318" y="56" font-size="10" text-anchor="middle" fill="#555">天吊りプロジェクター</text>
  <path d="M372,44 L390,44" stroke="#ccc" stroke-width="1.5" fill="none" marker-end="url(#arw)"/>
  <rect x="390" y="22" width="108" height="44" rx="7" fill="#DBEAFE"/>
  <text x="444" y="40" font-size="11" font-weight="bold" text-anchor="middle" fill="#1e3a8a">壁面投影</text>
  <text x="444" y="56" font-size="10" text-anchor="middle" fill="#555">ケーブルレス</text>

  <line x1="10" y1="78" x2="500" y2="78" stroke="#e5e7eb" stroke-width="1"/>

  <!-- 音声系（拡声） -->
  <text x="10" y="94" font-size="11" font-weight="bold" fill="#065f46">音声系（拡声）</text>
  <rect x="10" y="102" width="128" height="44" rx="7" fill="#ECFDF5"/>
  <text x="74" y="120" font-size="11" font-weight="bold" text-anchor="middle" fill="#064e3b">ワイヤレスマイク × 2</text>
  <text x="74" y="136" font-size="10" text-anchor="middle" fill="#555">Panasonicワイヤレス</text>
  <path d="M138,124 L156,124" stroke="#ccc" stroke-width="1.5" fill="none" marker-end="url(#arw)"/>
  <rect x="156" y="102" width="100" height="44" rx="7" fill="#ECFDF5"/>
  <text x="206" y="120" font-size="11" font-weight="bold" text-anchor="middle" fill="#064e3b">Solaro QR1</text>
  <text x="206" y="136" font-size="10" text-anchor="middle" fill="#555">ワイヤレス受信機</text>
  <path d="M256,124 L274,124" stroke="#ccc" stroke-width="1.5" fill="none" marker-end="url(#arw)"/>
  <rect x="274" y="102" width="108" height="44" rx="7" fill="#ECFDF5"/>
  <text x="328" y="120" font-size="11" font-weight="bold" text-anchor="middle" fill="#064e3b">Mezzo 322AD</text>
  <text x="328" y="136" font-size="10" text-anchor="middle" fill="#555">DSPミキサーアンプ</text>
  <path d="M382,124 L400,124" stroke="#ccc" stroke-width="1.5" fill="none" marker-end="url(#arw)"/>
  <rect x="400" y="102" width="100" height="44" rx="7" fill="#D1FAE5"/>
  <text x="450" y="120" font-size="11" font-weight="bold" text-anchor="middle" fill="#064e3b">WS-LA208 × 2</text>
  <text x="450" y="136" font-size="10" text-anchor="middle" fill="#555">アレイスピーカー</text>

  <line x1="10" y1="158" x2="500" y2="158" stroke="#e5e7eb" stroke-width="1"/>

  <!-- Web配信系 -->
  <text x="10" y="174" font-size="11" font-weight="bold" fill="#b45309">Web配信系</text>
  <rect x="10" y="182" width="124" height="44" rx="7" fill="#FEF3C7"/>
  <text x="72" y="200" font-size="11" font-weight="bold" text-anchor="middle" fill="#78350f">AW-UE40K</text>
  <text x="72" y="216" font-size="9" text-anchor="middle" fill="#555">リモートカメラ（PTZ）</text>
  <rect x="10" y="232" width="124" height="44" rx="7" fill="#FEF3C7"/>
  <text x="72" y="250" font-size="11" font-weight="bold" text-anchor="middle" fill="#78350f">AW-UE4WGN</text>
  <text x="72" y="266" font-size="9" text-anchor="middle" fill="#555">リモートカメラ（固定）</text>
  <rect x="10" y="282" width="124" height="44" rx="7" fill="#ECFDF5"/>
  <text x="72" y="300" font-size="11" font-weight="bold" text-anchor="middle" fill="#064e3b">WX-AM800</text>
  <text x="72" y="316" font-size="9" text-anchor="middle" fill="#555">シーリングマイク音声</text>
  <path d="M134,204 L143,204 L143,254 L152,254" stroke="#ccc" stroke-width="1.5" fill="none" marker-end="url(#arw)"/>
  <path d="M134,254 L152,254" stroke="#ccc" stroke-width="1.5" fill="none" marker-end="url(#arw)"/>
  <path d="M134,304 L143,304 L143,254 L152,254" stroke="#ccc" stroke-width="1.5" fill="none" marker-end="url(#arw)"/>
  <rect x="152" y="232" width="138" height="44" rx="7" fill="#FEF3C7"/>
  <text x="221" y="250" font-size="11" font-weight="bold" text-anchor="middle" fill="#78350f">映像スイッチ＋ミキサー</text>
  <text x="221" y="266" font-size="9" text-anchor="middle" fill="#555">配信用映像・音声切替</text>
  <path d="M290,254 L308,254" stroke="#ccc" stroke-width="1.5" fill="none" marker-end="url(#arw)"/>
  <rect x="308" y="232" width="64" height="44" rx="7" fill="#FEF3C7"/>
  <text x="340" y="250" font-size="11" font-weight="bold" text-anchor="middle" fill="#78350f">PC</text>
  <text x="340" y="266" font-size="9" text-anchor="middle" fill="#555">配信用PC</text>
  <path d="M372,254 L390,254" stroke="#ccc" stroke-width="1.5" fill="none" marker-end="url(#arw)"/>
  <rect x="390" y="232" width="110" height="44" rx="7" fill="#FEF3C7"/>
  <text x="445" y="250" font-size="11" font-weight="bold" text-anchor="middle" fill="#78350f">Teams / Zoom</text>
  <text x="445" y="266" font-size="9" text-anchor="middle" fill="#555">オンライン配信</text>

  <line x1="10" y1="338" x2="500" y2="338" stroke="#e5e7eb" stroke-width="1"/>

  <!-- 制御系 -->
  <text x="10" y="354" font-size="11" font-weight="bold" fill="#7c3aed">制御系</text>
  <rect x="10" y="362" width="118" height="44" rx="7" fill="#F5F3FF"/>
  <text x="69" y="380" font-size="11" font-weight="bold" text-anchor="middle" fill="#4c1d95">TLP Pro 1025T</text>
  <text x="69" y="396" font-size="10" text-anchor="middle" fill="#555">Extron タッチパネル</text>
  <path d="M128,384 L146,384" stroke="#ccc" stroke-width="1.5" fill="none" marker-end="url(#arw)"/>
  <rect x="146" y="362" width="110" height="44" rx="7" fill="#F5F3FF"/>
  <text x="201" y="380" font-size="11" font-weight="bold" text-anchor="middle" fill="#4c1d95">IPCP PRO 250xi</text>
  <text x="201" y="396" font-size="10" text-anchor="middle" fill="#555">Extron 制御プロセッサー</text>
  <path d="M256,384 L274,384" stroke="#ccc" stroke-width="1.5" fill="none" marker-end="url(#arw)"/>
  <rect x="274" y="362" width="224" height="44" rx="7" fill="#EDE9FE"/>
  <text x="386" y="380" font-size="11" font-weight="bold" text-anchor="middle" fill="#4c1d95">プロジェクター / アンプ / カメラ / 照明</text>
  <text x="386" y="396" font-size="10" text-anchor="middle" fill="#555">ワンタッチで全機器一括制御</text>
</svg>
