<svg viewBox="0 0 560 382" xmlns="http://www.w3.org/2000/svg" style="font-family:sans-serif;">
  <defs>
    <marker id="arw" markerWidth="7" markerHeight="7" refX="6" refY="3" orient="auto">
      <path d="M0,0 L0,6 L7,3 z" fill="#bbb"/>
    </marker>
  </defs>

  <!-- 映像系 -->
  <text x="10" y="14" font-size="11" font-weight="bold" fill="#3730a3">映像系</text>
  <rect x="10" y="22" width="92" height="44" rx="7" fill="#EEF2FF"/>
  <text x="56" y="40" font-size="11" font-weight="bold" text-anchor="middle" fill="#1e1b4b">BrightSign</text>
  <text x="56" y="56" font-size="10" text-anchor="middle" fill="#555">地震体感コンテンツ</text>
  <rect x="10" y="72" width="92" height="44" rx="7" fill="#EEF2FF"/>
  <text x="56" y="90" font-size="11" font-weight="bold" text-anchor="middle" fill="#1e1b4b">TY-WPS2 PressIT</text>
  <text x="56" y="106" font-size="10" text-anchor="middle" fill="#555">ワイヤレスHDMI入力</text>
  <path d="M102,44 L112,44 L112,69 L122,69" stroke="#ccc" stroke-width="1.5" fill="none" marker-end="url(#arw)"/>
  <path d="M102,94 L112,94 L112,69 L122,69" stroke="#ccc" stroke-width="1.5" fill="none" marker-end="url(#arw)"/>
  <rect x="122" y="47" width="110" height="44" rx="7" fill="#DBEAFE"/>
  <text x="177" y="65" font-size="11" font-weight="bold" text-anchor="middle" fill="#1e3a8a">PT-VMZ72J</text>
  <text x="177" y="81" font-size="10" text-anchor="middle" fill="#555">天吊りプロジェクター</text>
  <path d="M232,69 L250,69" stroke="#ccc" stroke-width="1.5" fill="none" marker-end="url(#arw)"/>
  <rect x="250" y="47" width="138" height="44" rx="7" fill="#DBEAFE"/>
  <text x="319" y="65" font-size="11" font-weight="bold" text-anchor="middle" fill="#1e3a8a">130インチ電動スクリーン</text>
  <text x="319" y="81" font-size="10" text-anchor="middle" fill="#555">自動昇降</text>

  <line x1="10" y1="128" x2="550" y2="128" stroke="#e5e7eb" stroke-width="1"/>

  <!-- 音声系 -->
  <text x="10" y="144" font-size="11" font-weight="bold" fill="#065f46">音声系</text>
  <rect x="10" y="152" width="92" height="44" rx="7" fill="#ECFDF5"/>
  <text x="56" y="170" font-size="11" font-weight="bold" text-anchor="middle" fill="#064e3b">BrightSign</text>
  <text x="56" y="186" font-size="10" text-anchor="middle" fill="#555">コンテンツ音声</text>
  <rect x="10" y="202" width="92" height="44" rx="7" fill="#ECFDF5"/>
  <text x="56" y="220" font-size="11" font-weight="bold" text-anchor="middle" fill="#064e3b">TY-WPS2 PressIT</text>
  <text x="56" y="236" font-size="10" text-anchor="middle" fill="#555">ステレオ音声</text>
  <rect x="10" y="252" width="92" height="44" rx="7" fill="#ECFDF5"/>
  <text x="56" y="270" font-size="11" font-weight="bold" text-anchor="middle" fill="#064e3b">AUX入力</text>
  <text x="56" y="286" font-size="10" text-anchor="middle" fill="#555">ステレオライン入力</text>
  <path d="M102,174 L112,174 L112,224 L122,224" stroke="#ccc" stroke-width="1.5" fill="none" marker-end="url(#arw)"/>
  <path d="M102,224 L122,224" stroke="#ccc" stroke-width="1.5" fill="none" marker-end="url(#arw)"/>
  <path d="M102,274 L112,274 L112,224 L122,224" stroke="#ccc" stroke-width="1.5" fill="none" marker-end="url(#arw)"/>
  <rect x="122" y="202" width="110" height="44" rx="7" fill="#ECFDF5"/>
  <text x="177" y="220" font-size="11" font-weight="bold" text-anchor="middle" fill="#064e3b">WP-DM948</text>
  <text x="177" y="236" font-size="10" text-anchor="middle" fill="#555">Extron パワーアンプ</text>
  <path d="M232,214 L242,214 L242,199 L250,199" stroke="#ccc" stroke-width="1.5" fill="none" marker-end="url(#arw)"/>
  <path d="M232,234 L242,234 L242,249 L250,249" stroke="#ccc" stroke-width="1.5" fill="none" marker-end="url(#arw)"/>
  <rect x="250" y="177" width="142" height="44" rx="7" fill="#D1FAE5"/>
  <text x="321" y="195" font-size="11" font-weight="bold" text-anchor="middle" fill="#064e3b">Tannoy VSX115B-BK</text>
  <text x="321" y="211" font-size="10" text-anchor="middle" fill="#555">15インチ壁面ビルトインSW</text>
  <rect x="250" y="227" width="142" height="44" rx="7" fill="#D1FAE5"/>
  <text x="321" y="245" font-size="11" font-weight="bold" text-anchor="middle" fill="#064e3b">Ci5-Black × 2</text>
  <text x="321" y="261" font-size="10" text-anchor="middle" fill="#555">5インチフロントスピーカー</text>

  <line x1="10" y1="308" x2="550" y2="308" stroke="#e5e7eb" stroke-width="1"/>

  <!-- 制御系 -->
  <text x="10" y="324" font-size="11" font-weight="bold" fill="#7c3aed">制御系</text>
  <rect x="10" y="332" width="100" height="44" rx="7" fill="#F5F3FF"/>
  <text x="60" y="350" font-size="11" font-weight="bold" text-anchor="middle" fill="#4c1d95">タッチパネル</text>
  <text x="60" y="366" font-size="10" text-anchor="middle" fill="#555">コンテンツ選択・音量</text>
  <path d="M110,354 L128,354" stroke="#ccc" stroke-width="1.5" fill="none" marker-end="url(#arw)"/>
  <rect x="128" y="332" width="110" height="44" rx="7" fill="#F5F3FF"/>
  <text x="183" y="350" font-size="11" font-weight="bold" text-anchor="middle" fill="#4c1d95">IPCP PRO 250xi</text>
  <text x="183" y="366" font-size="10" text-anchor="middle" fill="#555">Extron 制御プロセッサー</text>
  <path d="M238,354 L256,354" stroke="#ccc" stroke-width="1.5" fill="none" marker-end="url(#arw)"/>
  <rect x="256" y="332" width="292" height="44" rx="7" fill="#EDE9FE"/>
  <text x="402" y="350" font-size="11" font-weight="bold" text-anchor="middle" fill="#4c1d95">プロジェクター / スクリーン / BrightSign</text>
  <text x="402" y="366" font-size="10" text-anchor="middle" fill="#555">WP-DM948 を一括起動・停止</text>
</svg>
