<svg xmlns="http://www.w3.org/2000/svg" viewBox="0 0 100 100">
  <defs>
    <linearGradient id="g" x1="0" y1="0" x2="0" y2="1">
      <stop offset="0%" stop-color="#3355cc"/>
      <stop offset="100%" stop-color="#0a0a6e"/>
    </linearGradient>
  </defs>
  <!-- 外形：Mの形（左脚・左アーチ・中央谷・右アーチ・右脚） -->
  <path d="
    M8,88
    L8,52
    C8,28 22,12 38,12
    C46,12 52,16 56,22
    C60,16 66,12 74,12
    C90,12 96,28 96,52
    L96,88
    L82,88
    L82,52
    C82,38 78,26 68,26
    C62,26 58,32 56,40
    C54,32 50,26 44,26
    C34,26 22,38 22,52
    L22,88
    Z
  " fill="url(#g)"/>
  <!-- 左内側スリット -->
  <path d="M26,58 L26,88 L34,88 L34,54 C34,44 38,34 44,32 L36,32 C30,36 26,46 26,58Z" fill="white" opacity="0.25"/>
  <!-- 右内側スリット -->
  <path d="M78,58 L78,88 L70,88 L70,54 C70,44 66,34 60,32 L68,32 C74,36 78,46 78,58Z" fill="white" opacity="0.25"/>
</svg>
